<svg xmlns="http://www.w3.org/2000/svg" width="64" height="64" viewBox="0 0 64 64">
  <defs>
    <linearGradient id="parkingGrad" x1="0%" y1="0%" x2="100%" y2="100%">
      <stop offset="0%" style="stop-color:#2563eb;stop-opacity:1" />
      <stop offset="100%" style="stop-color:#1d4ed8;stop-opacity:1" />
    </linearGradient>
  </defs>

  <rect x="8" y="8" width="48" height="48" rx="8" fill="url(#parkingGrad)"/>

  <path d="M 20 18 L 32 18 C 38 18 42 22 42 28 C 42 34 38 38 32 38 L 26 38 L 26 46 L 20 46 Z M 26 24 L 26 32 L 31 32 C 34 32 36 30 36 28 C 36 26 34 24 31 24 Z" fill="white"/>

  <circle cx="48" cy="48" r="10" fill="#10b981"/>
  <path d="M 44 48 L 47 51 L 52 44" stroke="white" stroke-width="2" fill="none" stroke-linecap="round" stroke-linejoin="round"/>
</svg>
